<?xml version="1.0" encoding="UTF-8" standalone="no"?>
<!DOCTYPE svg PUBLIC "-//W3C//DTD SVG 1.1//EN" "http://www.w3.org/Graphics/SVG/1.1/DTD/svg11.dtd">
<svg version="1.1" xmlns="http://www.w3.org/2000/svg" xmlns:xlink="http://www.w3.org/1999/xlink" preserveAspectRatio="xMidYMid meet" viewBox="0 0 640 640" width="640" height="640"><defs><path d="" id="f3f2bZaRcO"></path><path d="M305.94 345.45C271.77 336.11 230.14 319.67 186.93 297.49C88.73 247.08 19.35 186 32.1 161.17C44.84 136.34 134.91 157.1 233.12 207.51C331.32 257.92 400.7 319 387.95 343.83C380.81 357.74 349.43 357.34 305.94 345.45Z" id="a1TRnI8RfZ"></path><path d="M265.59 254.66C265.59 334.62 242.93 399.55 215.02 399.55C187.11 399.55 164.45 334.62 164.45 254.66C164.45 174.69 187.11 109.77 215.02 109.77C242.93 109.77 265.59 174.69 265.59 254.66Z" id="a18oya01MO"></path><path d="M245.44 295.67C178.07 332.82 112.43 343.15 98.95 318.71C85.47 294.27 129.23 244.26 196.6 207.11C263.97 169.95 329.61 159.62 343.09 184.06C356.56 208.5 312.81 258.51 245.44 295.67Z" id="a2lj9iDsQq"></path><path d="" id="axem83S0q"></path><path d="M219.5 231.37L219.54 231.37L219.59 231.38L219.63 231.39L219.67 231.41L219.71 231.42L219.74 231.44L219.78 231.46L219.82 231.48L219.85 231.5L219.88 231.53L219.92 231.56L219.95 231.59L219.98 231.62L220.01 231.65L220.04 231.69L220.06 231.72L220.09 231.76L220.12 231.8L220.14 231.84L220.17 231.88L220.19 231.93L220.22 231.97L220.24 232.02L220.26 232.07L220.28 232.12L220.31 232.17L220.33 232.22L220.35 232.27L220.37 232.33L220.39 232.38L220.41 232.44L220.43 232.5L220.45 232.55L220.47 232.61L220.49 232.67L220.51 232.73L220.53 232.79L220.55 232.86L221.53 236.73L221.84 236.83L222.52 237.08L223.19 237.36L223.84 237.67L224.49 238L224.54 238.03L227.85 236.02L227.91 235.99L227.96 235.96L228.02 235.93L228.07 235.9L228.12 235.88L228.18 235.85L228.23 235.83L228.28 235.8L228.33 235.78L228.38 235.75L228.43 235.73L228.48 235.71L228.53 235.69L228.58 235.67L228.63 235.66L228.68 235.64L228.73 235.63L228.77 235.61L228.82 235.6L228.87 235.59L228.91 235.58L228.96 235.58L229 235.57L229.04 235.57L229.09 235.57L229.13 235.57L229.17 235.57L229.21 235.57L229.25 235.58L229.29 235.59L229.33 235.6L229.37 235.61L229.41 235.63L229.45 235.65L229.49 235.67L229.52 235.69L229.56 235.72L229.59 235.74L229.63 235.77L229.66 235.81L234.48 240.87L234.51 240.91L234.54 240.94L234.57 240.98L234.59 241.02L234.62 241.06L234.64 241.1L234.66 241.14L234.67 241.18L234.69 241.22L234.7 241.26L234.71 241.31L234.71 241.35L234.72 241.39L234.72 241.44L234.72 241.49L234.72 241.53L234.72 241.58L234.72 241.63L234.71 241.68L234.71 241.72L234.7 241.77L234.69 241.82L234.68 241.87L234.66 241.92L234.65 241.98L234.63 242.03L234.61 242.08L234.6 242.13L234.58 242.18L234.55 242.23L234.53 242.29L234.51 242.34L234.48 242.39L234.46 242.45L234.43 242.5L234.4 242.55L234.37 242.61L234.34 242.66L234.31 242.71L234.28 242.77L232.37 246.24L232.4 246.32L232.72 246.99L233.01 247.68L233.28 248.38L233.52 249.1L233.62 249.42L237.31 250.45L237.37 250.47L237.42 250.48L237.48 250.5L237.54 250.52L237.59 250.53L237.65 250.55L237.7 250.57L237.76 250.59L237.81 250.61L237.86 250.63L237.91 250.65L237.96 250.67L238.01 250.69L238.05 250.72L238.1 250.74L238.15 250.77L238.19 250.79L238.23 250.82L238.27 250.85L238.31 250.88L238.35 250.91L238.39 250.94L238.42 250.97L238.45 251L238.48 251.03L238.51 251.07L238.54 251.1L238.57 251.14L238.59 251.17L238.62 251.21L238.64 251.25L238.65 251.29L238.67 251.33L238.69 251.37L238.7 251.42L238.71 251.46L238.72 251.5L238.72 251.55L238.73 251.6L238.73 251.65L238.73 258.81L238.73 258.86L238.72 258.9L238.72 258.95L238.71 258.99L238.7 259.04L238.69 259.08L238.67 259.12L238.65 259.16L238.64 259.2L238.62 259.23L238.59 259.27L238.57 259.3L238.54 259.34L238.51 259.37L238.48 259.4L238.45 259.43L238.42 259.46L238.39 259.49L238.35 259.52L238.31 259.55L238.27 259.58L238.23 259.6L238.19 259.63L238.15 259.65L238.1 259.68L238.05 259.7L238.01 259.73L237.96 259.75L237.91 259.77L237.86 259.79L237.81 259.82L237.76 259.84L237.7 259.86L237.65 259.88L237.59 259.9L237.54 259.92L237.48 259.94L237.42 259.96L237.37 259.98L237.31 260L233.62 261.03L233.52 261.36L233.28 262.07L233.01 262.77L232.72 263.46L232.4 264.14L232.37 264.21L234.28 267.67L234.31 267.73L234.34 267.78L234.37 267.83L234.4 267.89L234.43 267.94L234.46 267.99L234.48 268.05L234.51 268.1L234.53 268.15L234.55 268.21L234.58 268.26L234.6 268.31L234.61 268.36L234.63 268.41L234.65 268.46L234.66 268.52L234.68 268.57L234.69 268.62L234.7 268.67L234.71 268.72L234.71 268.76L234.72 268.81L234.72 268.86L234.72 268.91L234.72 268.95L234.72 269L234.72 269.05L234.71 269.09L234.71 269.13L234.7 269.18L234.69 269.22L234.67 269.26L234.66 269.3L234.64 269.34L234.62 269.38L234.59 269.42L234.57 269.46L234.54 269.5L234.51 269.53L234.48 269.57L229.66 274.63L229.63 274.67L229.59 274.7L229.56 274.72L229.52 274.75L229.49 274.77L229.45 274.79L229.41 274.81L229.37 274.83L229.33 274.84L229.29 274.85L229.25 274.86L229.21 274.87L229.17 274.87L229.13 274.87L229.09 274.87L229.04 274.87L229 274.87L228.96 274.86L228.91 274.86L228.87 274.85L228.82 274.84L228.77 274.83L228.73 274.81L228.68 274.8L228.63 274.78L228.58 274.77L228.53 274.75L228.48 274.73L228.43 274.71L228.38 274.69L228.33 274.66L228.28 274.64L228.23 274.61L228.18 274.59L228.12 274.56L228.07 274.54L228.02 274.51L227.96 274.48L227.91 274.45L227.85 274.42L224.55 272.41L224.49 272.45L223.84 272.79L223.19 273.09L222.52 273.37L221.84 273.63L221.53 273.73L220.55 277.6L220.53 277.66L220.51 277.72L220.49 277.78L220.47 277.84L220.45 277.9L220.43 277.96L220.41 278.01L220.39 278.07L220.37 278.13L220.35 278.18L220.33 278.23L220.31 278.28L220.28 278.34L220.26 278.38L220.24 278.43L220.22 278.48L220.19 278.53L220.17 278.57L220.14 278.61L220.12 278.65L220.09 278.69L220.06 278.73L220.04 278.77L220.01 278.8L219.98 278.84L219.95 278.87L219.92 278.9L219.88 278.92L219.85 278.95L219.82 278.97L219.78 279L219.74 279.01L219.71 279.03L219.67 279.05L219.63 279.06L219.59 279.07L219.54 279.08L219.5 279.09L219.46 279.09L219.41 279.09L212.59 279.09L212.54 279.09L212.5 279.09L212.45 279.08L212.41 279.07L212.37 279.06L212.33 279.05L212.29 279.03L212.25 279.01L212.21 279L212.17 278.97L212.14 278.95L212.1 278.92L212.07 278.9L212.04 278.87L212 278.84L211.97 278.8L211.94 278.77L211.91 278.73L211.88 278.69L211.86 278.65L211.83 278.61L211.8 278.57L211.78 278.53L211.75 278.48L211.73 278.43L211.71 278.38L211.68 278.34L211.66 278.28L211.64 278.23L211.62 278.18L211.6 278.13L211.58 278.07L211.56 278.01L211.55 277.96L211.53 277.9L211.51 277.84L211.5 277.78L211.48 277.72L211.47 277.66L211.45 277.6L210.47 273.73L210.16 273.63L209.48 273.37L208.81 273.09L208.16 272.79L207.51 272.45L207.44 272.41L204.15 274.41L204.1 274.44L204.05 274.47L203.99 274.5L203.94 274.53L203.89 274.56L203.84 274.59L203.79 274.62L203.74 274.65L203.69 274.67L203.64 274.69L203.59 274.72L203.54 274.74L203.49 274.76L203.44 274.78L203.39 274.79L203.34 274.81L203.3 274.82L203.25 274.84L203.2 274.85L203.15 274.86L203.11 274.86L203.06 274.87L203.02 274.87L202.97 274.87L202.93 274.87L202.88 274.87L202.84 274.87L202.8 274.86L202.75 274.85L202.71 274.84L202.67 274.83L202.63 274.82L202.59 274.8L202.55 274.78L202.52 274.76L202.48 274.74L202.44 274.71L202.41 274.68L202.37 274.65L202.34 274.62L197.52 269.56L197.49 269.52L197.46 269.48L197.43 269.45L197.41 269.41L197.38 269.37L197.37 269.33L197.35 269.29L197.33 269.25L197.32 269.21L197.31 269.17L197.3 269.13L197.3 269.09L197.29 269.04L197.29 269L197.29 268.95L197.29 268.91L197.29 268.86L197.3 268.82L197.3 268.77L197.31 268.72L197.32 268.67L197.33 268.62L197.35 268.57L197.36 268.52L197.37 268.47L197.39 268.42L197.41 268.37L197.43 268.32L197.45 268.27L197.47 268.21L197.49 268.16L197.51 268.11L197.54 268.05L197.56 268L197.59 267.94L197.61 267.89L197.64 267.83L197.66 267.77L197.69 267.72L197.72 267.66L199.63 264.2L199.6 264.14L199.28 263.46L198.99 262.77L198.72 262.07L198.48 261.36L198.38 261.03L194.69 260L194.63 259.98L194.58 259.96L194.52 259.94L194.46 259.92L194.41 259.9L194.35 259.88L194.3 259.86L194.24 259.84L194.19 259.82L194.14 259.79L194.09 259.77L194.04 259.75L193.99 259.73L193.95 259.7L193.9 259.68L193.85 259.65L193.81 259.63L193.77 259.6L193.73 259.58L193.69 259.55L193.65 259.52L193.61 259.49L193.58 259.46L193.55 259.43L193.52 259.4L193.49 259.37L193.46 259.34L193.43 259.3L193.41 259.27L193.38 259.23L193.36 259.2L193.35 259.16L193.33 259.12L193.31 259.08L193.3 259.04L193.29 258.99L193.28 258.95L193.28 258.9L193.27 258.86L193.27 258.81L193.27 251.65L193.27 251.6L193.28 251.55L193.28 251.5L193.29 251.46L193.3 251.42L193.31 251.37L193.33 251.33L193.35 251.29L193.36 251.25L193.38 251.21L193.41 251.17L193.43 251.14L193.46 251.1L193.49 251.07L193.52 251.03L193.55 251L193.58 250.97L193.61 250.94L193.65 250.91L193.69 250.88L193.73 250.85L193.77 250.82L193.81 250.79L193.85 250.77L193.9 250.74L193.95 250.72L193.99 250.69L194.04 250.67L194.09 250.65L194.14 250.63L194.19 250.61L194.24 250.59L194.3 250.57L194.35 250.55L194.41 250.53L194.46 250.52L194.52 250.5L194.58 250.48L194.63 250.47L194.69 250.45L198.38 249.42L198.48 249.1L198.72 248.38L198.99 247.68L199.28 246.99L199.6 246.32L199.63 246.25L197.72 242.78L197.69 242.72L197.66 242.67L197.64 242.61L197.61 242.55L197.59 242.5L197.56 242.44L197.54 242.39L197.51 242.33L197.49 242.28L197.47 242.23L197.45 242.17L197.43 242.12L197.41 242.07L197.39 242.02L197.37 241.97L197.36 241.92L197.35 241.87L197.33 241.82L197.32 241.77L197.31 241.72L197.3 241.67L197.3 241.62L197.29 241.58L197.29 241.53L197.29 241.49L197.29 241.44L197.29 241.4L197.3 241.35L197.3 241.31L197.31 241.27L197.32 241.23L197.33 241.19L197.35 241.15L197.37 241.11L197.38 241.07L197.41 241.03L197.43 240.99L197.46 240.96L197.49 240.92L197.52 240.88L202.34 235.82L202.37 235.79L202.41 235.76L202.44 235.73L202.48 235.7L202.52 235.68L202.55 235.66L202.59 235.64L202.63 235.62L202.67 235.61L202.71 235.6L202.75 235.59L202.8 235.58L202.84 235.57L202.88 235.57L202.93 235.57L202.97 235.57L203.02 235.57L203.06 235.57L203.11 235.58L203.15 235.59L203.2 235.59L203.25 235.61L203.3 235.62L203.34 235.63L203.39 235.65L203.44 235.66L203.49 235.68L203.54 235.7L203.59 235.72L203.64 235.75L203.69 235.77L203.74 235.79L203.79 235.82L203.84 235.85L203.89 235.88L203.94 235.91L203.99 235.94L204.05 235.97L204.1 236L204.15 236.03L207.45 238.04L207.51 238L208.16 237.67L208.81 237.36L209.48 237.08L210.16 236.83L210.47 236.73L211.45 232.86L211.47 232.79L211.48 232.73L211.5 232.67L211.51 232.61L211.53 232.55L211.55 232.5L211.56 232.44L211.58 232.38L211.6 232.33L211.62 232.27L211.64 232.22L211.66 232.17L211.68 232.12L211.71 232.07L211.73 232.02L211.75 231.97L211.78 231.93L211.8 231.88L211.83 231.84L211.86 231.8L211.88 231.76L211.91 231.72L211.94 231.69L211.97 231.65L212 231.62L212.04 231.59L212.07 231.56L212.1 231.53L212.14 231.5L212.17 231.48L212.21 231.46L212.25 231.44L212.29 231.42L212.33 231.41L212.37 231.39L212.41 231.38L212.45 231.37L212.5 231.37L212.54 231.36L212.59 231.36L219.41 231.36L219.46 231.36L219.5 231.37ZM215.18 244.82L214.78 244.86L214.39 244.92L214 245L213.61 245.09L213.23 245.2L212.86 245.32L212.49 245.46L212.13 245.61L211.78 245.77L211.43 245.95L211.09 246.15L210.76 246.35L210.44 246.57L210.13 246.8L209.82 247.04L209.53 247.3L209.24 247.57L208.97 247.84L208.7 248.13L208.45 248.43L208.21 248.74L207.98 249.06L207.75 249.39L207.55 249.73L207.35 250.07L207.17 250.43L207 250.79L206.84 251.16L206.69 251.54L206.56 251.93L206.45 252.32L206.35 252.72L206.26 253.12L206.19 253.53L206.13 253.95L206.09 254.37L206.07 254.8L206.06 255.23L206.07 255.66L206.09 256.08L206.13 256.5L206.19 256.92L206.26 257.33L206.35 257.74L206.45 258.13L206.56 258.53L206.69 258.91L206.84 259.29L207 259.66L207.17 260.03L207.35 260.38L207.55 260.73L207.75 261.06L207.98 261.39L208.21 261.71L208.45 262.02L208.7 262.32L208.97 262.61L209.24 262.89L209.53 263.15L209.82 263.41L210.13 263.65L210.44 263.88L210.76 264.1L211.09 264.31L211.43 264.5L211.78 264.68L212.13 264.85L212.49 265L212.86 265.14L213.23 265.26L213.61 265.36L214 265.46L214.39 265.53L214.78 265.59L215.18 265.63L215.59 265.66L216 265.67L216.41 265.66L216.82 265.63L217.22 265.59L217.61 265.53L218 265.46L218.39 265.36L218.77 265.26L219.14 265.14L219.51 265L219.87 264.85L220.22 264.68L220.57 264.5L220.91 264.31L221.24 264.1L221.56 263.88L221.87 263.65L222.18 263.41L222.47 263.15L222.76 262.89L223.03 262.61L223.3 262.32L223.55 262.02L223.79 261.71L224.02 261.39L224.25 261.06L224.45 260.73L224.65 260.38L224.83 260.03L225 259.66L225.16 259.29L225.31 258.91L225.44 258.53L225.55 258.13L225.65 257.74L225.74 257.33L225.81 256.92L225.87 256.5L225.91 256.08L225.93 255.66L225.94 255.23L225.93 254.8L225.91 254.37L225.87 253.95L225.81 253.53L225.74 253.12L225.65 252.72L225.55 252.32L225.44 251.93L225.31 251.54L225.16 251.16L225 250.79L224.83 250.43L224.65 250.07L224.45 249.73L224.25 249.39L224.02 249.06L223.79 248.74L223.55 248.43L223.3 248.13L223.03 247.84L222.76 247.57L222.47 247.3L222.18 247.04L221.87 246.8L221.56 246.57L221.24 246.35L220.91 246.15L220.57 245.95L220.22 245.77L219.87 245.61L219.51 245.46L219.14 245.32L218.77 245.2L218.39 245.09L218 245L217.61 244.92L217.22 244.86L216.82 244.82L216.41 244.8L216 244.79L215.59 244.8L215.18 244.82Z" id="a6dsG1Pm5r"></path><path d="M571.14 210.36L571.14 64.91L216.1 64.91L215.02 108.09" id="c2CRSBCPbG"></path><path d="M571.14 323.95L571.14 430.45L215.02 433.05L215.02 403.18" id="dlTZjH4U4"></path><path d="" id="d2QlPG0pH"></path><path d="" id="ckWorx8v9"></path><path d="" id="d1w8abnlDj"></path><path d="" id="a5kSp2IjnZ"></path><path d="M521.7 320L617.73 320L617.73 214.32L521.7 214.32L521.7 320Z" id="a5UTkh710h"></path><path d="M615.45 247.86L519.43 247.86L615.45 247.86Z" id="d5z2VuU8em"></path><path d="M615.17 287.5L524.26 287.5" id="a4DGKpvUZw"></path><path d="" id="c20bU5RfaZ"></path><path d="" id="d34n1OwLdG"></path><path d="" id="h1296ZHX7F"></path><path d="M623.88 193.37L623.91 193.37L623.94 193.37L623.96 193.38L623.99 193.38L624.02 193.39L624.04 193.4L624.07 193.41L624.1 193.42L624.12 193.43L624.15 193.45L624.17 193.46L624.19 193.47L624.22 193.49L624.24 193.5L624.26 193.52L624.28 193.54L624.3 193.56L624.32 193.58L624.34 193.6L624.36 193.62L624.37 193.64L624.39 193.66L624.4 193.69L624.42 193.71L624.43 193.73L624.45 193.76L624.46 193.78L624.47 193.81L624.48 193.84L624.49 193.86L624.5 193.89L624.5 193.92L624.51 193.95L624.51 193.97L624.52 194L624.52 194.03L624.52 194.06L624.52 194.09L624.52 208.68L638.54 208.68L638.57 208.68L638.6 208.68L638.62 208.68L638.65 208.69L638.68 208.69L638.71 208.7L638.73 208.7L638.76 208.71L638.79 208.72L638.81 208.73L638.84 208.75L638.86 208.76L638.89 208.77L638.91 208.79L638.93 208.8L638.95 208.82L638.97 208.83L639 208.85L639.02 208.87L639.03 208.89L639.05 208.91L639.07 208.93L639.09 208.95L639.1 208.97L639.12 209L639.13 209.02L639.15 209.05L639.16 209.07L639.17 209.1L639.18 209.12L639.2 209.15L639.2 209.17L639.21 209.2L639.22 209.23L639.23 209.26L639.23 209.29L639.23 209.32L639.24 209.35L639.24 209.38L639.24 209.41L639.24 221.07L639.24 221.1L639.24 221.13L639.23 221.16L639.23 221.19L639.23 221.22L639.22 221.25L639.21 221.27L639.2 221.3L639.2 221.33L639.18 221.36L639.17 221.38L639.16 221.41L639.15 221.43L639.13 221.46L639.12 221.48L639.1 221.5L639.09 221.52L639.07 221.55L639.05 221.57L639.03 221.59L639.02 221.61L639 221.63L638.97 221.64L638.95 221.66L638.93 221.68L638.91 221.69L638.89 221.71L638.86 221.72L638.84 221.73L638.81 221.74L638.79 221.75L638.76 221.76L638.73 221.77L638.71 221.78L638.68 221.79L638.65 221.79L638.62 221.8L638.6 221.8L638.57 221.8L638.54 221.8L624.52 221.8L624.52 236.38L624.52 236.41L624.52 236.44L624.52 236.47L624.51 236.5L624.51 236.53L624.5 236.56L624.5 236.59L624.49 236.61L624.48 236.64L624.47 236.67L624.46 236.69L624.45 236.72L624.43 236.74L624.42 236.77L624.4 236.79L624.39 236.81L624.37 236.84L624.36 236.86L624.34 236.88L624.32 236.9L624.3 236.92L624.28 236.94L624.26 236.96L624.24 236.97L624.22 236.99L624.19 237L624.17 237.02L624.15 237.03L624.12 237.04L624.1 237.06L624.07 237.07L624.04 237.08L624.02 237.08L623.99 237.09L623.96 237.1L623.94 237.1L623.91 237.11L623.88 237.11L623.85 237.11L623.82 237.11L612.61 237.11L612.58 237.11L612.55 237.11L612.53 237.11L612.5 237.1L612.47 237.1L612.44 237.09L612.42 237.08L612.39 237.08L612.36 237.07L612.34 237.06L612.31 237.04L612.29 237.03L612.27 237.02L612.24 237L612.22 236.99L612.2 236.97L612.18 236.96L612.16 236.94L612.14 236.92L612.12 236.9L612.1 236.88L612.08 236.86L612.06 236.84L612.05 236.81L612.03 236.79L612.02 236.77L612 236.74L611.99 236.72L611.98 236.69L611.97 236.67L611.96 236.64L611.95 236.61L611.94 236.59L611.93 236.56L611.92 236.53L611.92 236.5L611.92 236.47L611.91 236.44L611.91 236.41L611.91 236.38L611.91 221.8L597.9 221.8L597.87 221.8L597.84 221.8L597.81 221.8L597.78 221.79L597.75 221.79L597.73 221.78L597.7 221.77L597.67 221.76L597.65 221.75L597.62 221.74L597.6 221.73L597.57 221.72L597.55 221.71L597.53 221.69L597.5 221.68L597.48 221.66L597.46 221.64L597.44 221.63L597.42 221.61L597.4 221.59L597.38 221.57L597.36 221.55L597.35 221.52L597.33 221.5L597.31 221.48L597.3 221.46L597.29 221.43L597.27 221.41L597.26 221.38L597.25 221.36L597.24 221.33L597.23 221.3L597.22 221.27L597.21 221.25L597.21 221.22L597.2 221.19L597.2 221.16L597.2 221.13L597.2 221.1L597.19 221.07L597.19 209.41L597.2 209.38L597.2 209.35L597.2 209.32L597.2 209.29L597.21 209.26L597.21 209.23L597.22 209.2L597.23 209.17L597.24 209.15L597.25 209.12L597.26 209.1L597.27 209.07L597.29 209.05L597.3 209.02L597.31 209L597.33 208.97L597.35 208.95L597.36 208.93L597.38 208.91L597.4 208.89L597.42 208.87L597.44 208.85L597.46 208.83L597.48 208.82L597.5 208.8L597.53 208.79L597.55 208.77L597.57 208.76L597.6 208.75L597.62 208.73L597.65 208.72L597.67 208.71L597.7 208.7L597.73 208.7L597.75 208.69L597.78 208.69L597.81 208.68L597.84 208.68L597.87 208.68L597.9 208.68L611.91 208.68L611.91 194.09L611.91 194.06L611.91 194.03L611.92 194L611.92 193.97L611.92 193.95L611.93 193.92L611.94 193.89L611.95 193.86L611.96 193.84L611.97 193.81L611.98 193.78L611.99 193.76L612 193.73L612.02 193.71L612.03 193.69L612.05 193.66L612.06 193.64L612.08 193.62L612.1 193.6L612.12 193.58L612.14 193.56L612.16 193.54L612.18 193.52L612.2 193.5L612.22 193.49L612.24 193.47L612.27 193.46L612.29 193.45L612.31 193.43L612.34 193.42L612.36 193.41L612.39 193.4L612.42 193.39L612.44 193.38L612.47 193.38L612.5 193.37L612.53 193.37L612.55 193.37L612.58 193.36L612.61 193.36L623.82 193.36L623.85 193.36L623.88 193.37Z" id="b44XYbpPXS"></path><path d="M580.02 205.23C580.02 210.24 576.2 214.32 571.5 214.32C566.79 214.32 562.97 210.24 562.97 205.23C562.97 200.21 566.79 196.14 571.5 196.14C576.2 196.14 580.02 200.21 580.02 205.23Z" id="boJ5LlHQC"></path><path d="M580.02 329.09C580.02 334.11 576.2 338.18 571.5 338.18C566.79 338.18 562.97 334.11 562.97 329.09C562.97 324.07 566.79 320 571.5 320C576.2 320 580.02 324.07 580.02 329.09Z" id="itvSjJPLd"></path></defs><g><g><g><g><use xlink:href="#f3f2bZaRcO" opacity="1" fill-opacity="0" stroke="#000000" stroke-width="1" stroke-opacity="1"></use></g></g><g><g><use xlink:href="#a1TRnI8RfZ" opacity="1" fill-opacity="0" stroke="#91a29f" stroke-width="5" stroke-opacity="1"></use></g></g><g><g><use xlink:href="#a18oya01MO" opacity="1" fill-opacity="0" stroke="#91a29f" stroke-width="5" stroke-opacity="1"></use></g></g><g><g><use xlink:href="#a2lj9iDsQq" opacity="1" fill-opacity="0" stroke="#91a29f" stroke-width="5" stroke-opacity="1"></use></g></g><g><g><use xlink:href="#axem83S0q" opacity="1" fill-opacity="0" stroke="#91a29f" stroke-width="5" stroke-opacity="1"></use></g></g><g><g><filter id="shadow8208030" x="184.27" y="222.36" width="64.45" height="66.73" filterUnits="userSpaceOnUse" primitiveUnits="userSpaceOnUse"><feFlood></feFlood><feComposite in2="SourceAlpha" operator="in"></feComposite><feGaussianBlur stdDeviation="1"></feGaussianBlur><feOffset dx="1" dy="1" result="afterOffset"></feOffset><feFlood flood-color="#1b6c4c" flood-opacity="0.5"></feFlood><feComposite in2="afterOffset" operator="in"></feComposite><feMorphology operator="dilate" radius="1"></feMorphology><feComposite in2="SourceAlpha" operator="out"></feComposite></filter><path d="M219.5 231.37L219.54 231.37L219.59 231.38L219.63 231.39L219.67 231.41L219.71 231.42L219.74 231.44L219.78 231.46L219.82 231.48L219.85 231.5L219.88 231.53L219.92 231.56L219.95 231.59L219.98 231.62L220.01 231.65L220.04 231.69L220.06 231.72L220.09 231.76L220.12 231.8L220.14 231.84L220.17 231.88L220.19 231.93L220.22 231.97L220.24 232.02L220.26 232.07L220.28 232.12L220.31 232.17L220.33 232.22L220.35 232.27L220.37 232.33L220.39 232.38L220.41 232.44L220.43 232.5L220.45 232.55L220.47 232.61L220.49 232.67L220.51 232.73L220.53 232.79L220.55 232.86L221.53 236.73L221.84 236.83L222.52 237.08L223.19 237.36L223.84 237.67L224.49 238L224.54 238.03L227.85 236.02L227.91 235.99L227.96 235.96L228.02 235.93L228.07 235.9L228.12 235.88L228.18 235.85L228.23 235.83L228.28 235.8L228.33 235.78L228.38 235.75L228.43 235.73L228.48 235.71L228.53 235.69L228.58 235.67L228.63 235.66L228.68 235.64L228.73 235.63L228.77 235.61L228.82 235.6L228.87 235.59L228.91 235.58L228.96 235.58L229 235.57L229.04 235.57L229.09 235.57L229.13 235.57L229.17 235.57L229.21 235.57L229.25 235.58L229.29 235.59L229.33 235.6L229.37 235.61L229.41 235.63L229.45 235.65L229.49 235.67L229.52 235.69L229.56 235.72L229.59 235.74L229.63 235.77L229.66 235.81L234.48 240.87L234.51 240.91L234.54 240.94L234.57 240.98L234.59 241.02L234.62 241.06L234.64 241.1L234.66 241.14L234.67 241.18L234.69 241.22L234.7 241.26L234.71 241.31L234.71 241.35L234.72 241.39L234.72 241.44L234.72 241.49L234.72 241.53L234.72 241.58L234.72 241.63L234.71 241.68L234.71 241.72L234.7 241.77L234.69 241.82L234.68 241.87L234.66 241.92L234.65 241.98L234.63 242.03L234.61 242.08L234.6 242.13L234.58 242.18L234.55 242.23L234.53 242.29L234.51 242.34L234.48 242.39L234.46 242.45L234.43 242.5L234.4 242.55L234.37 242.61L234.34 242.66L234.31 242.71L234.28 242.77L232.37 246.24L232.4 246.32L232.72 246.99L233.01 247.68L233.28 248.38L233.52 249.1L233.62 249.42L237.31 250.45L237.37 250.47L237.42 250.48L237.48 250.5L237.54 250.52L237.59 250.53L237.65 250.55L237.7 250.57L237.76 250.59L237.81 250.61L237.86 250.63L237.91 250.65L237.96 250.67L238.01 250.69L238.05 250.72L238.1 250.74L238.15 250.77L238.19 250.79L238.23 250.82L238.27 250.85L238.31 250.88L238.35 250.91L238.39 250.94L238.42 250.97L238.45 251L238.48 251.03L238.51 251.07L238.54 251.1L238.57 251.14L238.59 251.17L238.62 251.21L238.64 251.25L238.65 251.29L238.67 251.33L238.69 251.37L238.7 251.42L238.71 251.46L238.72 251.5L238.72 251.55L238.73 251.6L238.73 251.65L238.73 258.81L238.73 258.86L238.72 258.9L238.72 258.95L238.71 258.99L238.7 259.04L238.69 259.08L238.67 259.12L238.65 259.16L238.64 259.2L238.62 259.23L238.59 259.27L238.57 259.3L238.54 259.34L238.51 259.37L238.48 259.4L238.45 259.43L238.42 259.46L238.39 259.49L238.35 259.52L238.31 259.55L238.27 259.58L238.23 259.6L238.19 259.63L238.15 259.65L238.1 259.68L238.05 259.7L238.01 259.73L237.96 259.75L237.91 259.77L237.86 259.79L237.81 259.82L237.76 259.84L237.7 259.86L237.65 259.88L237.59 259.9L237.54 259.92L237.48 259.94L237.42 259.96L237.37 259.98L237.31 260L233.62 261.03L233.52 261.36L233.28 262.07L233.01 262.77L232.72 263.46L232.4 264.14L232.37 264.21L234.28 267.67L234.31 267.73L234.34 267.78L234.37 267.83L234.4 267.89L234.43 267.94L234.46 267.99L234.48 268.05L234.51 268.1L234.53 268.15L234.55 268.21L234.58 268.26L234.6 268.31L234.61 268.36L234.63 268.41L234.65 268.46L234.66 268.52L234.68 268.57L234.69 268.62L234.7 268.67L234.71 268.72L234.71 268.76L234.72 268.81L234.72 268.86L234.72 268.91L234.72 268.95L234.72 269L234.72 269.05L234.71 269.09L234.71 269.13L234.7 269.18L234.69 269.22L234.67 269.26L234.66 269.3L234.64 269.34L234.62 269.38L234.59 269.42L234.57 269.46L234.54 269.5L234.51 269.53L234.48 269.57L229.66 274.63L229.63 274.67L229.59 274.7L229.56 274.72L229.52 274.75L229.49 274.77L229.45 274.79L229.41 274.81L229.37 274.83L229.33 274.84L229.29 274.85L229.25 274.86L229.21 274.87L229.17 274.87L229.13 274.87L229.09 274.87L229.04 274.87L229 274.87L228.96 274.86L228.91 274.86L228.87 274.85L228.82 274.84L228.77 274.83L228.73 274.81L228.68 274.8L228.63 274.78L228.58 274.77L228.53 274.75L228.48 274.73L228.43 274.71L228.38 274.69L228.33 274.66L228.28 274.64L228.23 274.61L228.18 274.59L228.12 274.56L228.07 274.54L228.02 274.51L227.96 274.48L227.91 274.45L227.85 274.42L224.55 272.41L224.49 272.45L223.84 272.79L223.19 273.09L222.52 273.37L221.84 273.63L221.53 273.73L220.55 277.6L220.53 277.66L220.51 277.72L220.49 277.78L220.47 277.84L220.45 277.9L220.43 277.96L220.41 278.01L220.39 278.07L220.37 278.13L220.35 278.18L220.33 278.23L220.31 278.28L220.28 278.34L220.26 278.38L220.24 278.43L220.22 278.48L220.19 278.53L220.17 278.57L220.14 278.61L220.12 278.65L220.09 278.69L220.06 278.73L220.04 278.77L220.01 278.8L219.98 278.84L219.95 278.87L219.92 278.9L219.88 278.92L219.85 278.95L219.82 278.97L219.78 279L219.74 279.01L219.71 279.03L219.67 279.05L219.63 279.06L219.59 279.07L219.54 279.08L219.5 279.09L219.46 279.09L219.41 279.09L212.59 279.09L212.54 279.09L212.5 279.09L212.45 279.08L212.41 279.07L212.37 279.06L212.33 279.05L212.29 279.03L212.25 279.01L212.21 279L212.17 278.97L212.14 278.95L212.1 278.92L212.07 278.9L212.04 278.87L212 278.84L211.97 278.8L211.94 278.77L211.91 278.73L211.88 278.69L211.86 278.65L211.83 278.61L211.8 278.57L211.78 278.53L211.75 278.48L211.73 278.43L211.71 278.38L211.68 278.34L211.66 278.28L211.64 278.23L211.62 278.18L211.6 278.13L211.58 278.07L211.56 278.01L211.55 277.96L211.53 277.9L211.51 277.84L211.5 277.78L211.48 277.72L211.47 277.66L211.45 277.6L210.47 273.73L210.16 273.63L209.48 273.37L208.81 273.09L208.16 272.79L207.51 272.45L207.44 272.41L204.15 274.41L204.1 274.44L204.05 274.47L203.99 274.5L203.94 274.53L203.89 274.56L203.84 274.59L203.79 274.62L203.74 274.65L203.69 274.67L203.64 274.69L203.59 274.72L203.54 274.74L203.49 274.76L203.44 274.78L203.39 274.79L203.34 274.81L203.3 274.82L203.25 274.84L203.2 274.85L203.15 274.86L203.11 274.86L203.06 274.87L203.02 274.87L202.97 274.87L202.93 274.87L202.88 274.87L202.84 274.87L202.8 274.86L202.75 274.85L202.71 274.84L202.67 274.83L202.63 274.82L202.59 274.8L202.55 274.78L202.52 274.76L202.48 274.74L202.44 274.71L202.41 274.68L202.37 274.65L202.34 274.62L197.52 269.56L197.49 269.52L197.46 269.48L197.43 269.45L197.41 269.41L197.38 269.37L197.37 269.33L197.35 269.29L197.33 269.25L197.32 269.21L197.31 269.17L197.3 269.13L197.3 269.09L197.29 269.04L197.29 269L197.29 268.95L197.29 268.91L197.29 268.86L197.3 268.82L197.3 268.77L197.31 268.72L197.32 268.67L197.33 268.62L197.35 268.57L197.36 268.52L197.37 268.47L197.39 268.42L197.41 268.37L197.43 268.32L197.45 268.27L197.47 268.21L197.49 268.16L197.51 268.11L197.54 268.05L197.56 268L197.59 267.94L197.61 267.89L197.64 267.83L197.66 267.77L197.69 267.72L197.72 267.66L199.63 264.2L199.6 264.14L199.28 263.46L198.99 262.77L198.72 262.07L198.48 261.36L198.38 261.03L194.69 260L194.63 259.98L194.58 259.96L194.52 259.94L194.46 259.92L194.41 259.9L194.35 259.88L194.3 259.86L194.24 259.84L194.19 259.82L194.14 259.79L194.09 259.77L194.04 259.75L193.99 259.73L193.95 259.7L193.9 259.68L193.85 259.65L193.81 259.63L193.77 259.6L193.73 259.58L193.69 259.55L193.65 259.52L193.61 259.49L193.58 259.46L193.55 259.43L193.52 259.4L193.49 259.37L193.46 259.34L193.43 259.3L193.41 259.27L193.38 259.23L193.36 259.2L193.35 259.16L193.33 259.12L193.31 259.08L193.3 259.04L193.29 258.99L193.28 258.95L193.28 258.9L193.27 258.86L193.27 258.81L193.27 251.65L193.27 251.6L193.28 251.55L193.28 251.5L193.29 251.46L193.3 251.42L193.31 251.37L193.33 251.33L193.35 251.29L193.36 251.25L193.38 251.21L193.41 251.17L193.43 251.14L193.46 251.1L193.49 251.07L193.52 251.03L193.55 251L193.58 250.97L193.61 250.94L193.65 250.91L193.69 250.88L193.73 250.85L193.77 250.82L193.81 250.79L193.85 250.77L193.9 250.74L193.95 250.72L193.99 250.69L194.04 250.67L194.09 250.65L194.14 250.63L194.19 250.61L194.24 250.59L194.3 250.57L194.35 250.55L194.41 250.53L194.46 250.52L194.52 250.5L194.58 250.48L194.63 250.47L194.69 250.45L198.38 249.42L198.48 249.1L198.72 248.38L198.99 247.68L199.28 246.99L199.6 246.32L199.63 246.25L197.72 242.78L197.69 242.72L197.66 242.67L197.64 242.61L197.61 242.55L197.59 242.5L197.56 242.44L197.54 242.39L197.51 242.33L197.49 242.28L197.47 242.23L197.45 242.17L197.43 242.12L197.41 242.07L197.39 242.02L197.37 241.97L197.36 241.92L197.35 241.87L197.33 241.82L197.32 241.77L197.31 241.72L197.3 241.67L197.3 241.62L197.29 241.58L197.29 241.53L197.29 241.49L197.29 241.44L197.29 241.4L197.3 241.35L197.3 241.31L197.31 241.27L197.32 241.23L197.33 241.19L197.35 241.15L197.37 241.11L197.38 241.07L197.41 241.03L197.43 240.99L197.46 240.96L197.49 240.92L197.52 240.88L202.34 235.82L202.37 235.79L202.41 235.76L202.44 235.73L202.48 235.7L202.52 235.68L202.55 235.66L202.59 235.64L202.63 235.62L202.67 235.61L202.71 235.6L202.75 235.59L202.8 235.58L202.84 235.57L202.88 235.57L202.93 235.57L202.97 235.57L203.02 235.57L203.06 235.57L203.11 235.58L203.15 235.59L203.2 235.59L203.25 235.61L203.3 235.62L203.34 235.63L203.39 235.65L203.44 235.66L203.49 235.68L203.54 235.7L203.59 235.72L203.64 235.75L203.69 235.77L203.74 235.79L203.79 235.82L203.84 235.85L203.89 235.88L203.94 235.91L203.99 235.94L204.05 235.97L204.1 236L204.15 236.03L207.45 238.04L207.51 238L208.16 237.67L208.81 237.36L209.48 237.08L210.16 236.83L210.47 236.73L211.45 232.86L211.47 232.79L211.48 232.73L211.5 232.67L211.51 232.61L211.53 232.55L211.55 232.5L211.56 232.44L211.58 232.38L211.6 232.33L211.62 232.27L211.64 232.22L211.66 232.17L211.68 232.12L211.71 232.07L211.73 232.02L211.75 231.97L211.78 231.93L211.8 231.88L211.83 231.84L211.86 231.8L211.88 231.76L211.91 231.72L211.94 231.69L211.97 231.65L212 231.62L212.04 231.59L212.07 231.56L212.1 231.53L212.14 231.5L212.17 231.48L212.21 231.46L212.25 231.44L212.29 231.42L212.33 231.41L212.37 231.39L212.41 231.38L212.45 231.37L212.5 231.37L212.54 231.36L212.59 231.36L219.41 231.36L219.46 231.36L219.5 231.37ZM215.18 244.82L214.78 244.86L214.39 244.92L214 245L213.61 245.09L213.23 245.2L212.86 245.32L212.49 245.46L212.13 245.61L211.78 245.77L211.43 245.95L211.09 246.15L210.76 246.35L210.44 246.57L210.13 246.8L209.82 247.04L209.53 247.3L209.24 247.57L208.97 247.84L208.7 248.13L208.45 248.43L208.21 248.74L207.98 249.06L207.75 249.39L207.55 249.73L207.35 250.07L207.17 250.43L207 250.79L206.84 251.16L206.69 251.54L206.56 251.93L206.45 252.32L206.35 252.72L206.26 253.12L206.19 253.53L206.13 253.95L206.09 254.37L206.07 254.8L206.06 255.23L206.07 255.66L206.09 256.08L206.13 256.5L206.19 256.92L206.26 257.33L206.35 257.74L206.45 258.13L206.56 258.53L206.69 258.91L206.84 259.29L207 259.66L207.17 260.03L207.35 260.38L207.55 260.73L207.75 261.06L207.98 261.39L208.21 261.71L208.45 262.02L208.7 262.32L208.97 262.61L209.24 262.89L209.53 263.15L209.82 263.41L210.13 263.65L210.44 263.88L210.76 264.1L211.09 264.31L211.43 264.5L211.78 264.68L212.13 264.85L212.49 265L212.86 265.14L213.23 265.26L213.61 265.36L214 265.46L214.39 265.53L214.78 265.59L215.18 265.63L215.59 265.66L216 265.67L216.41 265.66L216.82 265.63L217.22 265.59L217.61 265.53L218 265.46L218.39 265.36L218.77 265.26L219.14 265.14L219.51 265L219.87 264.85L220.22 264.68L220.57 264.5L220.91 264.31L221.24 264.1L221.56 263.88L221.87 263.65L222.18 263.41L222.47 263.15L222.76 262.89L223.03 262.61L223.3 262.32L223.55 262.02L223.79 261.71L224.02 261.39L224.25 261.06L224.45 260.73L224.65 260.38L224.83 260.03L225 259.66L225.16 259.29L225.31 258.91L225.44 258.53L225.55 258.13L225.65 257.74L225.74 257.33L225.81 256.92L225.87 256.5L225.91 256.08L225.93 255.66L225.94 255.23L225.93 254.8L225.91 254.37L225.87 253.95L225.81 253.53L225.74 253.12L225.65 252.72L225.55 252.32L225.44 251.93L225.31 251.54L225.16 251.16L225 250.79L224.83 250.43L224.65 250.07L224.45 249.73L224.25 249.39L224.02 249.06L223.79 248.74L223.55 248.43L223.3 248.13L223.03 247.84L222.76 247.57L222.47 247.3L222.18 247.04L221.87 246.8L221.56 246.57L221.24 246.35L220.91 246.15L220.57 245.95L220.22 245.77L219.87 245.61L219.51 245.46L219.14 245.32L218.77 245.2L218.39 245.09L218 245L217.61 244.92L217.22 244.86L216.82 244.82L216.41 244.8L216 244.79L215.59 244.8L215.18 244.82Z" id="e1s7OOyJ3f" fill="white" fill-opacity="1" filter="url(#shadow8208030)"></path></g><g><use xlink:href="#a6dsG1Pm5r" opacity="1" fill-opacity="0" stroke="#74908c" stroke-width="5" stroke-opacity="1"></use></g></g><g><g><use xlink:href="#c2CRSBCPbG" opacity="1" fill-opacity="0" stroke="#89b0ab" stroke-width="5" stroke-opacity="1"></use></g></g><g><g><use xlink:href="#dlTZjH4U4" opacity="1" fill-opacity="0" stroke="#9eaeac" stroke-width="5" stroke-opacity="1"></use></g></g><g><g><use xlink:href="#d2QlPG0pH" opacity="1" fill-opacity="0" stroke="#0e1514" stroke-width="5" stroke-opacity="1"></use></g></g><g><g><use xlink:href="#ckWorx8v9" opacity="1" fill-opacity="0" stroke="#0e1514" stroke-width="5" stroke-opacity="1"></use></g></g><g><g><use xlink:href="#d1w8abnlDj" opacity="1" fill-opacity="0" stroke="#0e1514" stroke-width="5" stroke-opacity="1"></use></g></g><g><g><use xlink:href="#a5kSp2IjnZ" opacity="1" fill-opacity="0" stroke="#78928e" stroke-width="5" stroke-opacity="1"></use></g></g><g><g><use xlink:href="#a5UTkh710h" opacity="1" fill-opacity="0" stroke="#78928e" stroke-width="5" stroke-opacity="1"></use></g></g><g><g><use xlink:href="#d5z2VuU8em" opacity="1" fill-opacity="0" stroke="#78928e" stroke-width="5" stroke-opacity="1"></use></g></g><g><g><use xlink:href="#a4DGKpvUZw" opacity="1" fill-opacity="0" stroke="#78928e" stroke-width="5" stroke-opacity="1"></use></g></g><g><g><use xlink:href="#c20bU5RfaZ" opacity="1" fill-opacity="0" stroke="#78928e" stroke-width="5" stroke-opacity="1"></use></g></g><g><g><use xlink:href="#d34n1OwLdG" opacity="1" fill-opacity="0" stroke="#78928e" stroke-width="5" stroke-opacity="1"></use></g></g><g><g><use xlink:href="#h1296ZHX7F" opacity="1" fill-opacity="0" stroke="#78928e" stroke-width="5" stroke-opacity="1"></use></g></g><g><use xlink:href="#b44XYbpPXS" opacity="1" fill="#ffffff" fill-opacity="1"></use><g><use xlink:href="#b44XYbpPXS" opacity="1" fill-opacity="0" stroke="#788192" stroke-width="6" stroke-opacity="1"></use></g></g><g><use xlink:href="#boJ5LlHQC" opacity="1" fill="#9aaba5" fill-opacity="1"></use><g><use xlink:href="#boJ5LlHQC" opacity="1" fill-opacity="0" stroke="#788192" stroke-width="1" stroke-opacity="1"></use></g></g><g><use xlink:href="#itvSjJPLd" opacity="1" fill="#9aaba5" fill-opacity="1"></use><g><use xlink:href="#itvSjJPLd" opacity="1" fill-opacity="0" stroke="#788192" stroke-width="1" stroke-opacity="1"></use></g></g></g></g></svg>