<?xml version="1.0" encoding="UTF-8" standalone="no"?>
<!DOCTYPE svg PUBLIC "-//W3C//DTD SVG 1.1//EN" "http://www.w3.org/Graphics/SVG/1.1/DTD/svg11.dtd">
<svg version="1.1" xmlns="http://www.w3.org/2000/svg" xmlns:xlink="http://www.w3.org/1999/xlink" preserveAspectRatio="xMidYMid meet" viewBox="0 0 640 640" width="640" height="640"><defs><path d="" id="b2IHaJO6Zw"></path><path d="M408.94 403.45C374.77 394.11 333.14 377.67 289.93 355.49C191.73 305.08 122.35 244 135.1 219.17C147.84 194.34 237.91 215.1 336.12 265.51C434.32 315.92 503.7 377 490.95 401.83C483.81 415.74 452.43 415.34 408.94 403.45Z" id="b38kkIrcmd"></path><path d="M368.59 313.23C368.59 393.19 345.93 458.11 318.02 458.11C290.11 458.11 267.45 393.19 267.45 313.23C267.45 233.26 290.11 168.34 318.02 168.34C345.93 168.34 368.59 233.26 368.59 313.23Z" id="ao4VG95pn"></path><path d="M347.3 354.78C279.93 391.94 214.29 402.26 200.81 377.82C187.34 353.39 231.09 303.38 298.46 266.22C365.83 229.06 431.47 218.74 444.95 243.18C458.43 267.61 414.67 317.62 347.3 354.78Z" id="dRSNnGzWK"></path><path d="" id="d2XwWm5Nj"></path><path d="" id="a1xeBPGaZG"></path><path d="" id="dukQdnQOL"></path><path d="" id="oaTtbeBpf"></path><path d="" id="bnQfaGMj"></path><path d="" id="mkmWCPEUG"></path><path d="" id="amixDDeJM"></path><path d="" id="b49tDqI3t6"></path><path d="" id="a3kNg38V41"></path><path d="" id="b2WXgI2OfA"></path><path d="M334.45 310.5C334.45 320.53 327.09 328.68 318.02 328.68C308.95 328.68 301.59 320.53 301.59 310.5C301.59 300.47 308.95 292.32 318.02 292.32C327.09 292.32 334.45 300.47 334.45 310.5Z" id="ba3IDeegg"></path><path d="" id="j33vzYMxtu"></path><path d="M548.7 316.9C548.7 448 442.81 554.43 312.39 554.43C181.96 554.43 76.07 448 76.07 316.9C76.07 185.8 181.96 79.37 312.39 79.37C442.81 79.37 548.7 185.8 548.7 316.9Z" id="b2qzv21ds"></path></defs><g><g><g><g><use xlink:href="#b2IHaJO6Zw" opacity="1" fill-opacity="0" stroke="#495d5b" stroke-width="1" stroke-opacity="1"></use></g></g><g><g><use xlink:href="#b38kkIrcmd" opacity="1" fill-opacity="0" stroke="#ffffff" stroke-width="20" stroke-opacity="1"></use></g></g><g><g><use xlink:href="#ao4VG95pn" opacity="1" fill-opacity="0" stroke="#ffffff" stroke-width="20" stroke-opacity="1"></use></g></g><g><g><filter id="shadow12589126" x="188.38" y="219.92" width="271.01" height="182.15" filterUnits="userSpaceOnUse" primitiveUnits="userSpaceOnUse"><feFlood></feFlood><feComposite in2="SourceAlpha" operator="in"></feComposite><feGaussianBlur stdDeviation="1"></feGaussianBlur><feOffset dx="2" dy="1" result="afterOffset"></feOffset><feFlood flood-color="#000000" flood-opacity="0.5"></feFlood><feComposite in2="afterOffset" operator="in"></feComposite><feMorphology operator="dilate" radius="1"></feMorphology><feComposite in2="SourceAlpha" operator="out"></feComposite></filter><path d="M347.3 354.78C279.93 391.94 214.29 402.26 200.81 377.82C187.34 353.39 231.09 303.38 298.46 266.22C365.83 229.06 431.47 218.74 444.95 243.18C458.43 267.61 414.67 317.62 347.3 354.78Z" id="cyr0hczxZ" fill="white" fill-opacity="1" filter="url(#shadow12589126)"></path></g><g><use xlink:href="#dRSNnGzWK" opacity="1" fill-opacity="0" stroke="#ffffff" stroke-width="20" stroke-opacity="1"></use></g></g><g><g><use xlink:href="#d2XwWm5Nj" opacity="1" fill-opacity="0" stroke="#495d5b" stroke-width="5" stroke-opacity="1"></use></g></g><g><g><use xlink:href="#a1xeBPGaZG" opacity="1" fill-opacity="0" stroke="#495d5b" stroke-width="5" stroke-opacity="1"></use></g></g><g><g><use xlink:href="#dukQdnQOL" opacity="1" fill-opacity="0" stroke="#495d5b" stroke-width="5" stroke-opacity="1"></use></g></g><g><g><use xlink:href="#oaTtbeBpf" opacity="1" fill-opacity="0" stroke="#495d5b" stroke-width="5" stroke-opacity="1"></use></g></g><g><g><use xlink:href="#bnQfaGMj" opacity="1" fill-opacity="0" stroke="#495d5b" stroke-width="5" stroke-opacity="1"></use></g></g><g><g><use xlink:href="#mkmWCPEUG" opacity="1" fill-opacity="0" stroke="#495d5b" stroke-width="5" stroke-opacity="1"></use></g></g><g><g><use xlink:href="#amixDDeJM" opacity="1" fill-opacity="0" stroke="#495d5b" stroke-width="5" stroke-opacity="1"></use></g></g><g><g><use xlink:href="#b49tDqI3t6" opacity="1" fill-opacity="0" stroke="#495d5b" stroke-width="5" stroke-opacity="1"></use></g></g><g><g><use xlink:href="#a3kNg38V41" opacity="1" fill-opacity="0" stroke="#495d5b" stroke-width="4" stroke-opacity="1"></use></g></g><g><g><use xlink:href="#b2WXgI2OfA" opacity="1" fill-opacity="0" stroke="#ddcccc" stroke-opacity="1"></use></g></g><g><use xlink:href="#ba3IDeegg" opacity="1" fill="#ffffff" fill-opacity="1"></use><g><use xlink:href="#ba3IDeegg" opacity="1" fill-opacity="0" stroke="#ddcccc" stroke-opacity="1"></use></g></g><g><g><use xlink:href="#j33vzYMxtu" opacity="1" fill-opacity="0" stroke="#ddcccc" stroke-width="1" stroke-opacity="1"></use></g></g><g><g><filter id="shadow370997" x="53.07" y="56.37" width="533.64" height="522.07" filterUnits="userSpaceOnUse" primitiveUnits="userSpaceOnUse"><feFlood></feFlood><feComposite in2="SourceAlpha" operator="in"></feComposite><feGaussianBlur stdDeviation="1"></feGaussianBlur><feOffset dx="15" dy="1" result="afterOffset"></feOffset><feFlood flood-color="#000000" flood-opacity="0.5"></feFlood><feComposite in2="afterOffset" operator="in"></feComposite><feMorphology operator="dilate" radius="1"></feMorphology><feComposite in2="SourceAlpha" operator="out"></feComposite></filter><path d="M548.7 316.9C548.7 448 442.81 554.43 312.39 554.43C181.96 554.43 76.07 448 76.07 316.9C76.07 185.8 181.96 79.37 312.39 79.37C442.81 79.37 548.7 185.8 548.7 316.9Z" id="i2MpZ1d8SA" fill="white" fill-opacity="1" filter="url(#shadow370997)"></path></g><g><use xlink:href="#b2qzv21ds" opacity="1" fill-opacity="0" stroke="#ddcccc" stroke-opacity="1"></use></g><g><filter id="shadow14395679" x="53.07" y="56.37" width="533.64" height="522.07" filterUnits="userSpaceOnUse" primitiveUnits="userSpaceOnUse"><feFlood></feFlood><feComposite in2="SourceAlpha" operator="out"></feComposite><feGaussianBlur stdDeviation="1"></feGaussianBlur><feOffset dx="15" dy="1" result="afterOffset"></feOffset><feFlood flood-color="#ffffff" flood-opacity="0.8"></feFlood><feComposite in2="afterOffset" operator="in"></feComposite><feMorphology operator="dilate" radius="1"></feMorphology><feComposite in2="SourceAlpha" operator="in"></feComposite></filter><path d="M548.7 316.9C548.7 448 442.81 554.43 312.39 554.43C181.96 554.43 76.07 448 76.07 316.9C76.07 185.8 181.96 79.37 312.39 79.37C442.81 79.37 548.7 185.8 548.7 316.9Z" id="brZYVwRyI" fill="white" fill-opacity="1" filter="url(#shadow14395679)"></path></g></g></g></g></svg>