<?xml version="1.0" encoding="UTF-8" standalone="no"?>
<!DOCTYPE svg PUBLIC "-//W3C//DTD SVG 1.1//EN" "http://www.w3.org/Graphics/SVG/1.1/DTD/svg11.dtd">
<svg version="1.1" xmlns="http://www.w3.org/2000/svg" xmlns:xlink="http://www.w3.org/1999/xlink" preserveAspectRatio="xMidYMid meet" viewBox="0 0 640 640" width="640" height="640"><defs><path d="" id="ahTYwPweX"></path><path d="M397.94 375.45C363.77 366.11 322.14 349.67 278.93 327.49C180.73 277.08 111.35 216 124.1 191.17C136.84 166.34 226.91 187.1 325.12 237.51C423.32 287.92 492.7 349 479.95 373.83C472.81 387.74 441.43 387.34 397.94 375.45Z" id="a1i6GMRIDN"></path><path d="M357.59 284.66C357.59 364.62 334.93 429.55 307.02 429.55C279.11 429.55 256.45 364.62 256.45 284.66C256.45 204.69 279.11 139.77 307.02 139.77C334.93 139.77 357.59 204.69 357.59 284.66Z" id="al3PZilau"></path><path d="M336.3 326.78C268.93 363.94 203.29 374.26 189.81 349.82C176.34 325.39 220.09 275.38 287.46 238.22C354.83 201.06 420.47 190.74 433.95 215.18C447.43 239.61 403.67 289.62 336.3 326.78Z" id="diqOajc8B"></path><path d="" id="eneiOxaoX"></path><path d="" id="c3Z1aDnVRR"></path><path d="" id="a2UGYq6T8c"></path><path d="" id="b1rhBMmVGK"></path><path d="" id="d1bi4AmfNi"></path><path d="" id="a1mS9u7Rr3"></path><path d="" id="c48qGTCRsE"></path><path d="" id="d1ffwspKtG"></path><path d="" id="j35OvPTrV6"></path><path d="" id="gYjrShRL"></path><path d="M323.45 282.5C323.45 292.53 316.09 300.68 307.02 300.68C297.95 300.68 290.59 292.53 290.59 282.5C290.59 272.47 297.95 264.32 307.02 264.32C316.09 264.32 323.45 272.47 323.45 282.5Z" id="f20ZCs6Ml"></path></defs><g><g><g><g><use xlink:href="#ahTYwPweX" opacity="1" fill-opacity="0" stroke="#495d5b" stroke-width="1" stroke-opacity="1"></use></g></g><g><g><use xlink:href="#a1i6GMRIDN" opacity="1" fill-opacity="0" stroke="#495d5b" stroke-width="3" stroke-opacity="1"></use></g></g><g><g><use xlink:href="#al3PZilau" opacity="1" fill-opacity="0" stroke="#495d5b" stroke-width="3" stroke-opacity="1"></use></g></g><g><g><use xlink:href="#diqOajc8B" opacity="1" fill-opacity="0" stroke="#495d5b" stroke-width="3" stroke-opacity="1"></use></g></g><g><g><use xlink:href="#eneiOxaoX" opacity="1" fill-opacity="0" stroke="#495d5b" stroke-width="5" stroke-opacity="1"></use></g></g><g><g><use xlink:href="#c3Z1aDnVRR" opacity="1" fill-opacity="0" stroke="#495d5b" stroke-width="5" stroke-opacity="1"></use></g></g><g><g><use xlink:href="#a2UGYq6T8c" opacity="1" fill-opacity="0" stroke="#495d5b" stroke-width="5" stroke-opacity="1"></use></g></g><g><g><use xlink:href="#b1rhBMmVGK" opacity="1" fill-opacity="0" stroke="#495d5b" stroke-width="5" stroke-opacity="1"></use></g></g><g><g><use xlink:href="#d1bi4AmfNi" opacity="1" fill-opacity="0" stroke="#495d5b" stroke-width="5" stroke-opacity="1"></use></g></g><g><g><use xlink:href="#a1mS9u7Rr3" opacity="1" fill-opacity="0" stroke="#495d5b" stroke-width="5" stroke-opacity="1"></use></g></g><g><g><use xlink:href="#c48qGTCRsE" opacity="1" fill-opacity="0" stroke="#495d5b" stroke-width="5" stroke-opacity="1"></use></g></g><g><g><use xlink:href="#d1ffwspKtG" opacity="1" fill-opacity="0" stroke="#495d5b" stroke-width="5" stroke-opacity="1"></use></g></g><g><g><use xlink:href="#j35OvPTrV6" opacity="1" fill-opacity="0" stroke="#495d5b" stroke-width="4" stroke-opacity="1"></use></g></g><g><g><use xlink:href="#gYjrShRL" opacity="1" fill-opacity="0" stroke="#ddcccc" stroke-opacity="1"></use></g></g><g><use xlink:href="#f20ZCs6Ml" opacity="1" fill="#134437" fill-opacity="1"></use></g></g></g></svg>