<?xml version="1.0" encoding="UTF-8" standalone="no"?>
<!DOCTYPE svg PUBLIC "-//W3C//DTD SVG 1.1//EN" "http://www.w3.org/Graphics/SVG/1.1/DTD/svg11.dtd">
<svg version="1.1" xmlns="http://www.w3.org/2000/svg" xmlns:xlink="http://www.w3.org/1999/xlink" preserveAspectRatio="xMidYMid meet" viewBox="0 0 640 640" width="640" height="640"><defs><path d="" id="a8AT7AclQ"></path><path d="M408.94 403.45C374.77 394.11 333.14 377.67 289.93 355.49C191.73 305.08 122.35 244 135.1 219.17C147.84 194.34 237.91 215.1 336.12 265.51C434.32 315.92 503.7 377 490.95 401.83C483.81 415.74 452.43 415.34 408.94 403.45Z" id="dyxAyyLuj"></path><path d="M368.59 312.66C368.59 392.62 345.93 457.55 318.02 457.55C290.11 457.55 267.45 392.62 267.45 312.66C267.45 232.69 290.11 167.77 318.02 167.77C345.93 167.77 368.59 232.69 368.59 312.66Z" id="aUvAALwvS"></path><path d="M347.3 354.78C279.93 391.94 214.29 402.26 200.81 377.82C187.34 353.39 231.09 303.38 298.46 266.22C365.83 229.06 431.47 218.74 444.95 243.18C458.43 267.61 414.67 317.62 347.3 354.78Z" id="cUcntF7Pv"></path><path d="" id="a1yLOkp6Q"></path><path d="" id="a3xCiP1sA"></path><path d="" id="cr6bc4q47"></path><path d="" id="g1172cGnIj"></path><path d="" id="a2PrcgYbIg"></path><path d="" id="bzQDLbrjS"></path><path d="" id="d1otW8rCi0"></path><path d="" id="c2nznoBbhc"></path><path d="" id="b2mc0ILCb0"></path><path d="" id="a45EI1DCr"></path><path d="M334.45 310.5C334.45 320.53 327.09 328.68 318.02 328.68C308.95 328.68 301.59 320.53 301.59 310.5C301.59 300.47 308.95 292.32 318.02 292.32C327.09 292.32 334.45 300.47 334.45 310.5Z" id="aA20RVDuO"></path><path d="M548.7 310.9C548.7 442 442.81 548.43 312.39 548.43C181.96 548.43 76.07 442 76.07 310.9C76.07 179.8 181.96 73.37 312.39 73.37C442.81 73.37 548.7 179.8 548.7 310.9Z" id="b6jQuwLWMK"></path><path d="" id="ea70n8vMcg"></path></defs><g><g><g><g><use xlink:href="#a8AT7AclQ" opacity="1" fill-opacity="0" stroke="#495d5b" stroke-width="1" stroke-opacity="1"></use></g></g><g><g><use xlink:href="#dyxAyyLuj" opacity="1" fill-opacity="0" stroke="#495d5b" stroke-width="3" stroke-opacity="1"></use></g></g><g><g><use xlink:href="#aUvAALwvS" opacity="1" fill-opacity="0" stroke="#495d5b" stroke-width="3" stroke-opacity="1"></use></g></g><g><g><use xlink:href="#cUcntF7Pv" opacity="1" fill-opacity="0" stroke="#495d5b" stroke-width="3" stroke-opacity="1"></use></g></g><g><g><use xlink:href="#a1yLOkp6Q" opacity="1" fill-opacity="0" stroke="#495d5b" stroke-width="5" stroke-opacity="1"></use></g></g><g><g><use xlink:href="#a3xCiP1sA" opacity="1" fill-opacity="0" stroke="#495d5b" stroke-width="5" stroke-opacity="1"></use></g></g><g><g><use xlink:href="#cr6bc4q47" opacity="1" fill-opacity="0" stroke="#495d5b" stroke-width="5" stroke-opacity="1"></use></g></g><g><g><use xlink:href="#g1172cGnIj" opacity="1" fill-opacity="0" stroke="#495d5b" stroke-width="5" stroke-opacity="1"></use></g></g><g><g><use xlink:href="#a2PrcgYbIg" opacity="1" fill-opacity="0" stroke="#495d5b" stroke-width="5" stroke-opacity="1"></use></g></g><g><g><use xlink:href="#bzQDLbrjS" opacity="1" fill-opacity="0" stroke="#495d5b" stroke-width="5" stroke-opacity="1"></use></g></g><g><g><use xlink:href="#d1otW8rCi0" opacity="1" fill-opacity="0" stroke="#495d5b" stroke-width="5" stroke-opacity="1"></use></g></g><g><g><use xlink:href="#c2nznoBbhc" opacity="1" fill-opacity="0" stroke="#495d5b" stroke-width="5" stroke-opacity="1"></use></g></g><g><g><use xlink:href="#b2mc0ILCb0" opacity="1" fill-opacity="0" stroke="#495d5b" stroke-width="4" stroke-opacity="1"></use></g></g><g><g><use xlink:href="#a45EI1DCr" opacity="1" fill-opacity="0" stroke="#ddcccc" stroke-opacity="1"></use></g></g><g><use xlink:href="#aA20RVDuO" opacity="1" fill="#134437" fill-opacity="1"></use></g><g><g><filter id="shadow11806667" x="65.07" y="62.37" width="497.64" height="498.07" filterUnits="userSpaceOnUse" primitiveUnits="userSpaceOnUse"><feFlood></feFlood><feComposite in2="SourceAlpha" operator="in"></feComposite><feGaussianBlur stdDeviation="1"></feGaussianBlur><feOffset dx="3" dy="1" result="afterOffset"></feOffset><feFlood flood-color="#000000" flood-opacity="0.5"></feFlood><feComposite in2="afterOffset" operator="in"></feComposite><feMorphology operator="dilate" radius="1"></feMorphology><feComposite in2="SourceAlpha" operator="out"></feComposite></filter><path d="M548.7 310.9C548.7 442 442.81 548.43 312.39 548.43C181.96 548.43 76.07 442 76.07 310.9C76.07 179.8 181.96 73.37 312.39 73.37C442.81 73.37 548.7 179.8 548.7 310.9Z" id="bbUEK5yab" fill="white" fill-opacity="1" filter="url(#shadow11806667)"></path></g><g><use xlink:href="#b6jQuwLWMK" opacity="1" fill-opacity="0" stroke="#ddcccc" stroke-opacity="1"></use></g><g><filter id="shadow1337830" x="65.07" y="62.37" width="497.64" height="498.07" filterUnits="userSpaceOnUse" primitiveUnits="userSpaceOnUse"><feFlood></feFlood><feComposite in2="SourceAlpha" operator="out"></feComposite><feGaussianBlur stdDeviation="1"></feGaussianBlur><feOffset dx="3" dy="1" result="afterOffset"></feOffset><feFlood flood-color="#ffffff" flood-opacity="0.8"></feFlood><feComposite in2="afterOffset" operator="in"></feComposite><feMorphology operator="dilate" radius="1"></feMorphology><feComposite in2="SourceAlpha" operator="in"></feComposite></filter><path d="M548.7 310.9C548.7 442 442.81 548.43 312.39 548.43C181.96 548.43 76.07 442 76.07 310.9C76.07 179.8 181.96 73.37 312.39 73.37C442.81 73.37 548.7 179.8 548.7 310.9Z" id="n27eT5Q5VF" fill="white" fill-opacity="1" filter="url(#shadow1337830)"></path></g></g><g><g><use xlink:href="#ea70n8vMcg" opacity="1" fill-opacity="0" stroke="#ddcccc" stroke-width="1" stroke-opacity="1"></use></g></g></g></g></svg>